<svg id="_110118_lightsON_logo.svg" data-name="110118_lightsON_logo.svg" xmlns="http://www.w3.org/2000/svg" width="207" height="207" viewBox="0 0 207 207">
  <defs>
    <style>
      .cls-1 {
        fill: #cb1f41;
      }

      .cls-2 {
        fill: #fff;
        fill-rule: evenodd;
      }
    </style>
  </defs>
  <rect class="cls-1" width="207" height="207"/>
  <path class="cls-2" d="M1416.61,263.729h-13.79v2.262h3.63v69.983c-0.08,1.542-.66,2.1-2.89,2.188h-0.74v1.931h15.55v-1.931h-1.64c-2.6-.1-3.56-1.166-3.61-3.437V307.59h4.53c6.58,0,10.35-3.185,10.35-7.445V271.808c0-4.257-3.25-8.084-11.39-8.079m4.76,21.676v15.077a4.277,4.277,0,0,1-4.45,4.55h-3.8V265.988h3.47a4.8,4.8,0,0,1,4.78,4.914v14.5Zm-85.76,22.143h4.06v27.361a4.267,4.267,0,0,1-4.22,4.409,4.187,4.187,0,0,1-4.03-4.409V270.664c0-1.769.35-5.891,3.34-5.864,2.47,0.01,4.18,2.28,4.97,5.729,0.84,3.611,1.36,11.928,1.36,15.6,0,1.236.45,1.658,1.81,1.658h2.9V263.677h-2.37v1.145c-0.01,1.221-.77,1.122-1.4.735a13.724,13.724,0,0,0-7.26-2.565c-4,.012-9.75,1.787-9.77,9.5v56.751c0.07,9.863,5.27,11.69,10.38,11.754,3.97,0.019,5.73-2.093,7.28-2.851,1.01-.493,1.79.764,1.79,2.218h2.06V307.548h3.34V305.1h-14.24v2.449Zm33.62-2.409,3.64-30.745,4.12,30.745h-7.76Zm17.96,29.525v0.061l-8.78-71.011h-0.04v0.021h-6.9l-8.85,71.149c-0.48,2.271-.52,2.838-3.94,3.018l0.01,0.489v1.693h10.9v-1.932a5.376,5.376,0,0,1-3.41-1.022,2.609,2.609,0,0,1-.57-1.511l3.3-28.071h8.41l3.46,28.025c-0.01,1.784-.2,2.442-2.33,2.579h-1.03v1.932h13.84v-1.932h-0.38a3.535,3.535,0,0,1-3.69-3.488" transform="translate(-1273 -198)"/>
</svg>
